<?xml version="1.0" encoding="UTF-8"?>
<!-- Do not edit this file with editors other than draw.io -->
<!DOCTYPE svg PUBLIC "-//W3C//DTD SVG 1.1//EN" "http://www.w3.org/Graphics/SVG/1.1/DTD/svg11.dtd">
<svg xmlns="http://www.w3.org/2000/svg" xmlns:xlink="http://www.w3.org/1999/xlink" version="1.1" width="860px" height="860px" viewBox="-0.5 -0.5 860 860" content="&lt;mxfile host=&quot;app.diagrams.net&quot; modified=&quot;2024-06-14T15:17:47.345Z&quot; agent=&quot;Mozilla/5.0 (X11; Ubuntu; Linux x86_64; rv:126.0) Gecko/20100101 Firefox/126.0&quot; version=&quot;24.5.4&quot; etag=&quot;WAulFez0l1h4I9Xa1V_J&quot; type=&quot;google&quot; scale=&quot;1&quot; border=&quot;0&quot;&gt;&#xA;  &lt;diagram name=&quot;Page-1&quot; id=&quot;ih_QW6uGbEZXQySXFMMC&quot;&gt;&#xA;    &lt;mxGraphModel dx=&quot;1602&quot; dy=&quot;935&quot; grid=&quot;1&quot; gridSize=&quot;10&quot; guides=&quot;1&quot; tooltips=&quot;1&quot; connect=&quot;1&quot; arrows=&quot;1&quot; fold=&quot;1&quot; page=&quot;1&quot; pageScale=&quot;1&quot; pageWidth=&quot;850&quot; pageHeight=&quot;1100&quot; math=&quot;0&quot; shadow=&quot;0&quot;&gt;&#xA;      &lt;root&gt;&#xA;        &lt;mxCell id=&quot;0&quot; /&gt;&#xA;        &lt;mxCell id=&quot;1&quot; parent=&quot;0&quot; /&gt;&#xA;        &lt;mxCell id=&quot;2&quot; value=&quot;&quot; style=&quot;strokeWidth=2;html=1;shape=mxgraph.flowchart.terminator;whiteSpace=wrap;rotation=90;fillColor=#FFFFFF;strokeColor=none;gradientColor=#000000;gradientDirection=radial;&quot; vertex=&quot;1&quot; parent=&quot;1&quot;&gt;&#xA;          &lt;mxGeometry x=&quot;-320&quot; y=&quot;420&quot; width=&quot;737.5&quot; height=&quot;60&quot; as=&quot;geometry&quot; /&gt;&#xA;        &lt;/mxCell&gt;&#xA;        &lt;mxCell id=&quot;3&quot; value=&quot;&quot; style=&quot;strokeWidth=2;html=1;shape=mxgraph.flowchart.terminator;whiteSpace=wrap;rotation=0;fillColor=#FFFFFF;strokeColor=none;gradientColor=#000000;gradientDirection=radial;&quot; vertex=&quot;1&quot; parent=&quot;1&quot;&gt;&#xA;          &lt;mxGeometry x=&quot;80&quot; y=&quot;20&quot; width=&quot;737.5&quot; height=&quot;60&quot; as=&quot;geometry&quot; /&gt;&#xA;        &lt;/mxCell&gt;&#xA;        &lt;mxCell id=&quot;4&quot; value=&quot;&quot; style=&quot;strokeWidth=2;html=1;shape=mxgraph.flowchart.terminator;whiteSpace=wrap;rotation=90;fillColor=#FFFFFF;strokeColor=none;gradientColor=#000000;gradientDirection=radial;&quot; vertex=&quot;1&quot; parent=&quot;1&quot;&gt;&#xA;          &lt;mxGeometry x=&quot;480&quot; y=&quot;420&quot; width=&quot;737.5&quot; height=&quot;60&quot; as=&quot;geometry&quot; /&gt;&#xA;        &lt;/mxCell&gt;&#xA;        &lt;mxCell id=&quot;5&quot; value=&quot;&quot; style=&quot;strokeWidth=2;html=1;shape=mxgraph.flowchart.terminator;whiteSpace=wrap;rotation=0;fillColor=#FFFFFF;strokeColor=none;gradientColor=#000000;gradientDirection=radial;&quot; vertex=&quot;1&quot; parent=&quot;1&quot;&gt;&#xA;          &lt;mxGeometry x=&quot;80&quot; y=&quot;820&quot; width=&quot;737.5&quot; height=&quot;60&quot; as=&quot;geometry&quot; /&gt;&#xA;        &lt;/mxCell&gt;&#xA;      &lt;/root&gt;&#xA;    &lt;/mxGraphModel&gt;&#xA;  &lt;/diagram&gt;&#xA;&lt;/mxfile&gt;&#xA;"><defs><radialGradient x1="0%" y1="0%" x2="0%" y2="0%" id="mx-gradient-ffffff-1-000000-1-r-0"><stop offset="0%" style="stop-color: rgb(255, 255, 255); stop-opacity: 1;"/><stop offset="100%" style="stop-color: rgb(0, 0, 0); stop-opacity: 1;"/></radialGradient></defs><g><g><path d="M -113.23 400 L 172.73 400 C 297.42 400 398.5 413.43 398.5 430 C 398.5 446.57 297.42 460 172.73 460 L -113.23 460 C -237.92 460 -339 446.57 -339 430 C -339 413.43 -237.92 400 -113.23 400 Z" fill="url(#mx-gradient-ffffff-1-000000-1-r-0)" stroke="none" transform="rotate(90,29.75,430)" pointer-events="all"/></g><g><path d="M 286.77 0 L 572.73 0 C 697.42 0 798.5 13.43 798.5 30 C 798.5 46.57 697.42 60 572.73 60 L 286.77 60 C 162.08 60 61 46.57 61 30 C 61 13.43 162.08 0 286.77 0 Z" fill="url(#mx-gradient-ffffff-1-000000-1-r-0)" stroke="none" pointer-events="all"/></g><g><path d="M 686.77 400 L 972.73 400 C 1097.42 400 1198.5 413.43 1198.5 430 C 1198.5 446.57 1097.42 460 972.73 460 L 686.77 460 C 562.08 460 461 446.57 461 430 C 461 413.43 562.08 400 686.77 400 Z" fill="url(#mx-gradient-ffffff-1-000000-1-r-0)" stroke="none" transform="rotate(90,829.75,430)" pointer-events="all"/></g><g><path d="M 286.77 800 L 572.73 800 C 697.42 800 798.5 813.43 798.5 830 C 798.5 846.57 697.42 860 572.73 860 L 286.77 860 C 162.08 860 61 846.57 61 830 C 61 813.43 162.08 800 286.77 800 Z" fill="url(#mx-gradient-ffffff-1-000000-1-r-0)" stroke="none" pointer-events="all"/></g></g></svg>