<?xml version="1.0" encoding="UTF-8"?>
<!-- Do not edit this file with editors other than draw.io -->
<!DOCTYPE svg PUBLIC "-//W3C//DTD SVG 1.1//EN" "http://www.w3.org/Graphics/SVG/1.1/DTD/svg11.dtd">
<svg xmlns="http://www.w3.org/2000/svg" xmlns:xlink="http://www.w3.org/1999/xlink" version="1.1" width="732px" height="636px" viewBox="-0.5 -0.5 732 636" content="&lt;mxfile host=&quot;app.diagrams.net&quot; modified=&quot;2024-06-13T12:27:10.910Z&quot; agent=&quot;Mozilla/5.0 (X11; Ubuntu; Linux x86_64; rv:126.0) Gecko/20100101 Firefox/126.0&quot; etag=&quot;BZOQ-mxUk3AWHixkX2mz&quot; version=&quot;24.5.4&quot; type=&quot;google&quot; scale=&quot;1&quot; border=&quot;0&quot;&gt;&#xA;  &lt;diagram name=&quot;Page-1&quot; id=&quot;KAaol_ensbshCHPdZqtK&quot;&gt;&#xA;    &lt;mxGraphModel dx=&quot;1362&quot; dy=&quot;795&quot; grid=&quot;1&quot; gridSize=&quot;10&quot; guides=&quot;1&quot; tooltips=&quot;1&quot; connect=&quot;1&quot; arrows=&quot;1&quot; fold=&quot;1&quot; page=&quot;1&quot; pageScale=&quot;1&quot; pageWidth=&quot;850&quot; pageHeight=&quot;1100&quot; math=&quot;0&quot; shadow=&quot;0&quot;&gt;&#xA;      &lt;root&gt;&#xA;        &lt;mxCell id=&quot;0&quot; /&gt;&#xA;        &lt;mxCell id=&quot;1&quot; parent=&quot;0&quot; /&gt;&#xA;        &lt;mxCell id=&quot;w9-t9xo4gyoU88y5JNI8-5&quot; value=&quot;&quot; style=&quot;strokeWidth=2;html=1;shape=mxgraph.flowchart.terminator;whiteSpace=wrap;rotation=90;fillColor=#000000;strokeColor=default;gradientColor=#FFFFFF;gradientDirection=radial;&quot; parent=&quot;1&quot; vertex=&quot;1&quot;&gt;&#xA;          &lt;mxGeometry x=&quot;-240&quot; y=&quot;360&quot; width=&quot;620&quot; height=&quot;60&quot; as=&quot;geometry&quot; /&gt;&#xA;        &lt;/mxCell&gt;&#xA;        &lt;mxCell id=&quot;w9-t9xo4gyoU88y5JNI8-6&quot; value=&quot;&quot; style=&quot;strokeWidth=2;html=1;shape=mxgraph.flowchart.terminator;whiteSpace=wrap;fillColor=#000000;strokeColor=default;gradientColor=#FFFFFF;gradientDirection=radial;&quot; parent=&quot;1&quot; vertex=&quot;1&quot;&gt;&#xA;          &lt;mxGeometry x=&quot;110&quot; y=&quot;340&quot; width=&quot;240&quot; height=&quot;60&quot; as=&quot;geometry&quot; /&gt;&#xA;        &lt;/mxCell&gt;&#xA;        &lt;mxCell id=&quot;w9-t9xo4gyoU88y5JNI8-8&quot; value=&quot;&quot; style=&quot;strokeWidth=2;html=1;shape=mxgraph.flowchart.terminator;whiteSpace=wrap;rotation=90;fillColor=#000000;strokeColor=default;gradientColor=#FFFFFF;gradientDirection=radial;&quot; parent=&quot;1&quot; vertex=&quot;1&quot;&gt;&#xA;          &lt;mxGeometry x=&quot;80&quot; y=&quot;360&quot; width=&quot;620&quot; height=&quot;60&quot; as=&quot;geometry&quot; /&gt;&#xA;        &lt;/mxCell&gt;&#xA;        &lt;mxCell id=&quot;w9-t9xo4gyoU88y5JNI8-9&quot; value=&quot;&quot; style=&quot;strokeWidth=2;html=1;shape=mxgraph.flowchart.terminator;whiteSpace=wrap;rotation=60;fillColor=#000000;strokeColor=default;gradientColor=#FFFFFF;gradientDirection=radial;&quot; parent=&quot;1&quot; vertex=&quot;1&quot;&gt;&#xA;          &lt;mxGeometry x=&quot;345.67&quot; y=&quot;177.5&quot; width=&quot;282.34&quot; height=&quot;50&quot; as=&quot;geometry&quot; /&gt;&#xA;        &lt;/mxCell&gt;&#xA;        &lt;mxCell id=&quot;w9-t9xo4gyoU88y5JNI8-10&quot; value=&quot;&quot; style=&quot;strokeWidth=2;html=1;shape=mxgraph.flowchart.terminator;whiteSpace=wrap;rotation=-240;fillColor=#000000;strokeColor=default;gradientColor=#FFFFFF;gradientDirection=radial;&quot; parent=&quot;1&quot; vertex=&quot;1&quot;&gt;&#xA;          &lt;mxGeometry x=&quot;499.99999999999994&quot; y=&quot;175&quot; width=&quot;282.34&quot; height=&quot;55&quot; as=&quot;geometry&quot; /&gt;&#xA;        &lt;/mxCell&gt;&#xA;        &lt;mxCell id=&quot;g-fDR0rH1PF7xBDRpWwV-8&quot; value=&quot;&quot; style=&quot;strokeWidth=2;html=1;shape=mxgraph.flowchart.terminator;whiteSpace=wrap;rotation=90;fillColor=#000000;strokeColor=default;gradientColor=#FFFFFF;gradientDirection=radial;&quot; parent=&quot;1&quot; vertex=&quot;1&quot;&gt;&#xA;          &lt;mxGeometry x=&quot;430&quot; y=&quot;360&quot; width=&quot;620&quot; height=&quot;60&quot; as=&quot;geometry&quot; /&gt;&#xA;        &lt;/mxCell&gt;&#xA;      &lt;/root&gt;&#xA;    &lt;/mxGraphModel&gt;&#xA;  &lt;/diagram&gt;&#xA;&lt;/mxfile&gt;&#xA;"><defs><radialGradient x1="0%" y1="0%" x2="0%" y2="0%" id="mx-gradient-000000-1-ffffff-1-r-0"><stop offset="0%" style="stop-color: rgb(0, 0, 0); stop-opacity: 1;"/><stop offset="100%" style="stop-color: rgb(255, 255, 255); stop-opacity: 1;"/></radialGradient></defs><g><g><path d="M -89.2 294 L 151.2 294 C 256.03 294 341 307.43 341 324 C 341 340.57 256.03 354 151.2 354 L -89.2 354 C -194.03 354 -279 340.57 -279 324 C -279 307.43 -194.03 294 -89.2 294 Z" fill="url(#mx-gradient-000000-1-ffffff-1-r-0)" stroke="rgb(0, 0, 0)" stroke-width="2" stroke-miterlimit="10" transform="rotate(90,31,324)" pointer-events="all"/></g><g><path d="M 144.47 274 L 237.53 274 C 278.11 274 311 287.43 311 304 C 311 320.57 278.11 334 237.53 334 L 144.47 334 C 103.89 334 71 320.57 71 304 C 71 287.43 103.89 274 144.47 274 Z" fill="url(#mx-gradient-000000-1-ffffff-1-r-0)" stroke="rgb(0, 0, 0)" stroke-width="2" stroke-miterlimit="10" pointer-events="all"/></g><g><path d="M 230.8 294 L 471.2 294 C 576.03 294 661 307.43 661 324 C 661 340.57 576.03 354 471.2 354 L 230.8 354 C 125.97 354 41 340.57 41 324 C 41 307.43 125.97 294 230.8 294 Z" fill="url(#mx-gradient-000000-1-ffffff-1-r-0)" stroke="rgb(0, 0, 0)" stroke-width="2" stroke-miterlimit="10" transform="rotate(90,351,324)" pointer-events="all"/></g><g><path d="M 393.1 111.5 L 502.58 111.5 C 550.31 111.5 589.01 122.69 589.01 136.5 C 589.01 150.31 550.31 161.5 502.58 161.5 L 393.1 161.5 C 345.37 161.5 306.67 150.31 306.67 136.5 C 306.67 122.69 345.37 111.5 393.1 111.5 Z" fill="url(#mx-gradient-000000-1-ffffff-1-r-0)" stroke="rgb(0, 0, 0)" stroke-width="2" stroke-miterlimit="10" transform="rotate(60,447.84,136.5)" pointer-events="all"/></g><g><path d="M 547.43 109 L 656.91 109 C 704.64 109 743.34 121.31 743.34 136.5 C 743.34 151.69 704.64 164 656.91 164 L 547.43 164 C 499.7 164 461 151.69 461 136.5 C 461 121.31 499.7 109 547.43 109 Z" fill="url(#mx-gradient-000000-1-ffffff-1-r-0)" stroke="rgb(0, 0, 0)" stroke-width="2" stroke-miterlimit="10" transform="rotate(-240,602.17,136.5)" pointer-events="all"/></g><g><path d="M 580.8 294 L 821.2 294 C 926.03 294 1011 307.43 1011 324 C 1011 340.57 926.03 354 821.2 354 L 580.8 354 C 475.97 354 391 340.57 391 324 C 391 307.43 475.97 294 580.8 294 Z" fill="url(#mx-gradient-000000-1-ffffff-1-r-0)" stroke="rgb(0, 0, 0)" stroke-width="2" stroke-miterlimit="10" transform="rotate(90,701,324)" pointer-events="all"/></g></g></svg>